<svg width="149" height="142" viewBox="0 0 149 142" fill="none" xmlns="http://www.w3.org/2000/svg">
<path d="M53.821 24.0597C53.821 10.7719 41.7728 0 26.9105 0C12.0482 0 0 10.7719 0 24.0597C0 28.827 1.57619 33.2609 4.24801 37.0004H4.21726C13.2899 49.7005 26.9105 68.7421 26.9105 68.7421L49.6037 37.0004H49.5768C52.2448 33.2609 53.821 28.827 53.821 24.0597ZM26.9105 34.371C20.5404 34.371 15.3774 29.755 15.3774 24.0597C15.3774 18.3645 20.5404 13.7484 26.9105 13.7484C33.2806 13.7484 38.4436 18.3645 38.4436 24.0597C38.4436 29.755 33.2806 34.371 26.9105 34.371Z" fill="#276561"/>
</svg>
