<svg width="76" height="68" viewBox="0 0 76 68" fill="none" xmlns="http://www.w3.org/2000/svg">
<path d="M35.0938 6.06112C37.188 5.79301 39.4533 6.40998 41.1147 7.85282L68.3688 31.5616C71.0966 33.9305 71.2317 37.6894 68.6404 39.9398L45.0824 60.3979C42.491 62.6483 38.1625 62.5309 35.4348 60.1621L8.13356 36.4942C6.47211 35.0514 5.76165 33.0841 6.07038 31.2655L9.6072 10.0805C9.68918 9.58947 10.1333 9.20375 10.6988 9.13255L35.0938 6.06112ZM22.9501 31.7354C26.4384 34.7647 32.1465 34.7647 35.6349 31.7354C39.1232 28.7061 39.1232 23.749 35.6349 20.7197C32.1465 17.6904 26.4384 17.6904 22.9501 20.7197C19.4617 23.749 19.4617 28.7061 22.9501 31.7354V31.7354Z" stroke="#276561" stroke-width="10.7489" stroke-linecap="round" stroke-linejoin="round"/>
</svg>
