<svg width="36" height="50" viewBox="0 0 36 50" fill="none" xmlns="http://www.w3.org/2000/svg">
<path d="M5.16821 10.3718V36.4783C5.16821 38.2433 5.66257 39.9359 6.54252 41.1839C7.42247 42.4319 8.61595 43.133 9.86039 43.133H27.1853C28.4298 43.133 29.6233 42.4319 30.5032 41.1839C31.3832 39.9359 31.8775 38.2433 31.8775 36.4783V19.074C31.8775 17.5759 31.5212 16.1217 30.8662 14.9464C30.2112 13.7711 29.2959 12.9435 28.2682 12.5975V10.8837C28.2682 10.2786 28.1841 9.67957 28.0209 9.12062C27.8576 8.56166 27.6184 8.05379 27.3167 7.62598C27.0151 7.19818 26.657 6.85883 26.2628 6.6273C25.8687 6.39578 25.4463 6.27661 25.0197 6.27661H8.41664C7.61762 6.27665 6.84663 6.69433 6.25108 7.44981C5.65554 8.2053 5.27721 9.24557 5.18843 10.3718H5.16821ZM8.41664 12.4193C8.12946 12.4193 7.85405 12.2575 7.65098 11.9695C7.44791 11.6815 7.33383 11.2909 7.33383 10.8837C7.33383 10.4764 7.44791 10.0858 7.65098 9.79776C7.85405 9.50977 8.12946 9.34797 8.41664 9.34797H25.0197C25.3069 9.34797 25.5823 9.50977 25.7854 9.79776C25.9885 10.0858 26.1025 10.4764 26.1025 10.8837V12.4193H8.41664ZM24.2979 26.7524H27.1853C27.4725 26.7524 27.7479 26.9142 27.951 27.2022C28.1541 27.4901 28.2682 27.8808 28.2682 28.288C28.2682 28.6953 28.1541 29.0859 27.951 29.3739C27.7479 29.6619 27.4725 29.8237 27.1853 29.8237H24.2979C24.0107 29.8237 23.7353 29.6619 23.5322 29.3739C23.3291 29.0859 23.215 28.6953 23.215 28.288C23.215 27.8808 23.3291 27.4901 23.5322 27.2022C23.7353 26.9142 24.0107 26.7524 24.2979 26.7524Z" fill="black"/>
</svg>
