<svg width="31" height="28" viewBox="0 0 31 28" fill="none" xmlns="http://www.w3.org/2000/svg">
<path d="M12.9167 17.5L12.9167 14" stroke="white" stroke-width="2" stroke-linecap="round"/>
<path d="M18.0833 17.5L18.0833 14" stroke="white" stroke-width="2" stroke-linecap="round"/>
<path d="M3.875 8.1665H27.125V8.1665C25.3607 8.1665 24.4785 8.1665 23.9069 8.6846C23.8584 8.72856 23.8121 8.77488 23.7681 8.82339C23.25 9.39502 23.25 10.2772 23.25 12.0415V19.3332C23.25 21.2188 23.25 22.1616 22.6642 22.7474C22.0784 23.3332 21.1356 23.3332 19.25 23.3332H11.75C9.86438 23.3332 8.92157 23.3332 8.33579 22.7474C7.75 22.1616 7.75 21.2188 7.75 19.3332V12.0415C7.75 10.2772 7.75 9.39502 7.2319 8.82339C7.18794 8.77488 7.14162 8.72856 7.09312 8.6846C6.52149 8.1665 5.63932 8.1665 3.875 8.1665V8.1665Z" stroke="white" stroke-width="2" stroke-linecap="round"/>
<path d="M13.0047 3.93236C13.1519 3.80832 13.4762 3.69872 13.9274 3.62054C14.3785 3.54237 14.9313 3.5 15.5 3.5C16.0687 3.5 16.6215 3.54237 17.0726 3.62054C17.5238 3.69872 17.8481 3.80832 17.9953 3.93236" stroke="white" stroke-width="2" stroke-linecap="round"/>
</svg>
