<svg width="28" height="27" viewBox="0 0 28 27" fill="none" xmlns="http://www.w3.org/2000/svg">
<path d="M4.66667 4.5H6.61907C7.36275 4.5 7.73459 4.5 8.00485 4.70913C8.27511 4.91825 8.36843 5.27819 8.55506 5.99808L8.74776 6.74134C8.93569 7.4662 9.02965 7.82863 9.21687 8.10945C9.45879 8.4723 9.81267 8.74613 10.2246 8.88924C10.5434 9 10.9178 9 11.6667 9V9" stroke="white" stroke-width="2" stroke-linecap="round"/>
<path d="M21 19.125H8.77221C8.44285 19.125 8.27817 19.125 8.15649 19.094C7.68346 18.9732 7.36672 18.5286 7.40718 18.0421C7.41759 17.917 7.47139 17.7613 7.579 17.45V17.45C7.69592 17.1118 7.75438 16.9427 7.83178 16.7994C8.12621 16.2544 8.65659 15.8766 9.2679 15.7763C9.4286 15.75 9.60754 15.75 9.96542 15.75H16.3333" stroke="white" stroke-width="2" stroke-linecap="round" stroke-linejoin="round"/>
<path d="M18.6175 15.75H11.0173C10.0442 15.75 9.21227 15.0496 9.04653 14.0906L8.47009 10.7555C8.3116 9.83851 9.01762 9 9.94817 9H21.6884C22.4382 9 22.9213 9.79466 22.5761 10.4603L20.393 14.6706C20.0492 15.3338 19.3645 15.75 18.6175 15.75Z" stroke="white" stroke-width="2" stroke-linecap="round"/>
<ellipse cx="19.8333" cy="22.5" rx="1.16667" ry="1.125" fill="white"/>
<ellipse cx="10.5" cy="22.5" rx="1.16667" ry="1.125" fill="white"/>
</svg>
