<svg width="172" height="157" viewBox="0 0 172 157" fill="none" xmlns="http://www.w3.org/2000/svg">
<path d="M62 27.2872C62 12.691 48.1209 0.858521 31 0.858521C13.8791 0.858521 0 12.691 0 27.2872C0 32.5239 1.81571 37.3943 4.89357 41.5021H4.85814C15.3096 55.4526 31 76.369 31 76.369L57.1419 41.5021H57.1109C60.1843 37.3943 62 32.5239 62 27.2872ZM31 38.6138C23.6619 38.6138 17.7143 33.5432 17.7143 27.2872C17.7143 21.0312 23.6619 15.9606 31 15.9606C38.3381 15.9606 44.2857 21.0312 44.2857 27.2872C44.2857 33.5432 38.3381 38.6138 31 38.6138Z" fill="#276561"/>
</svg>
