<svg width="118" height="89" viewBox="0 0 118 89" fill="none" xmlns="http://www.w3.org/2000/svg">
<path d="M53.6866 5.72856C57.1553 5.35823 60.9074 6.21043 63.6593 8.20335L108.801 40.9512C113.319 44.2232 113.543 49.4152 109.251 52.5236L70.2311 80.7815C65.9389 83.8898 58.7695 83.7277 54.2514 80.4557L9.03145 47.7644C6.27952 45.7714 5.10277 43.0542 5.61413 40.5423L11.4723 11.2804C11.6081 10.6021 12.3438 10.0693 13.2803 9.97099L53.6866 5.72856ZM33.5725 41.1912C39.3504 45.3755 48.805 45.3755 54.5828 41.1912C60.3606 37.007 60.3606 30.16 54.5828 25.9758C48.805 21.7915 39.3504 21.7915 33.5725 25.9758C27.7947 30.16 27.7947 37.007 33.5725 41.1912V41.1912Z" stroke="#276561" stroke-width="10.7489" stroke-linecap="round" stroke-linejoin="round"/>
</svg>
