<svg width="35" height="50" viewBox="0 0 35 50" fill="none" xmlns="http://www.w3.org/2000/svg">
<path d="M5.08887 10.8764V36.983C5.08887 38.7479 5.57645 40.4406 6.44436 41.6885C7.31227 42.9365 8.4894 43.6376 9.71681 43.6376H26.8046C28.032 43.6376 29.2091 42.9365 30.077 41.6885C30.9449 40.4406 31.4325 38.7479 31.4325 36.983V19.5786C31.4325 18.0806 31.0811 16.6263 30.4351 15.4511C29.789 14.2758 28.8862 13.4482 27.8726 13.1021V11.3883C27.8726 10.7833 27.7897 10.1842 27.6287 9.62528C27.4677 9.06633 27.2317 8.55846 26.9342 8.13065C26.6366 7.70285 26.2834 7.3635 25.8947 7.13197C25.506 6.90045 25.0894 6.78128 24.6686 6.78128H8.29283C7.50474 6.78131 6.74431 7.199 6.15691 7.95448C5.56952 8.70997 5.19637 9.75024 5.1088 10.8764H5.08887ZM8.29283 12.924C8.00958 12.924 7.73793 12.7622 7.53765 12.4742C7.33736 12.1862 7.22484 11.7956 7.22484 11.3883C7.22484 10.981 7.33736 10.5904 7.53765 10.3024C7.73793 10.0144 8.00958 9.85264 8.29283 9.85264H24.6686C24.9519 9.85264 25.2235 10.0144 25.4238 10.3024C25.6241 10.5904 25.7366 10.981 25.7366 11.3883V12.924H8.29283ZM23.9566 27.257H26.8046C27.0878 27.257 27.3595 27.4188 27.5598 27.7068C27.7601 27.9948 27.8726 28.3854 27.8726 28.7927C27.8726 29.2 27.7601 29.5906 27.5598 29.8786C27.3595 30.1666 27.0878 30.3284 26.8046 30.3284H23.9566C23.6734 30.3284 23.4017 30.1666 23.2014 29.8786C23.0012 29.5906 22.8886 29.2 22.8886 28.7927C22.8886 28.3854 23.0012 27.9948 23.2014 27.7068C23.4017 27.4188 23.6734 27.257 23.9566 27.257Z" fill="black"/>
</svg>
