<svg width="31" height="28" viewBox="0 0 31 28" fill="none" xmlns="http://www.w3.org/2000/svg">
<path d="M12.9166 17.5L12.9166 14" stroke="white" stroke-width="2" stroke-linecap="round"/>
<path d="M18.0834 17.5L18.0834 14" stroke="white" stroke-width="2" stroke-linecap="round"/>
<path d="M3.875 8.16675H27.125V8.16675C25.3607 8.16675 24.4785 8.16675 23.9069 8.68485C23.8584 8.72881 23.8121 8.77513 23.7681 8.82363C23.25 9.39526 23.25 10.2774 23.25 12.0417V19.3334C23.25 21.219 23.25 22.1618 22.6642 22.7476C22.0784 23.3334 21.1356 23.3334 19.25 23.3334H11.75C9.86438 23.3334 8.92157 23.3334 8.33579 22.7476C7.75 22.1618 7.75 21.219 7.75 19.3334V12.0418C7.75 10.2774 7.75 9.39526 7.2319 8.82363C7.18794 8.77513 7.14162 8.72881 7.09312 8.68485C6.52149 8.16675 5.63932 8.16675 3.875 8.16675V8.16675Z" stroke="white" stroke-width="2" stroke-linecap="round"/>
<path d="M13.0047 3.93236C13.1519 3.80832 13.4762 3.69872 13.9274 3.62054C14.3786 3.54237 14.9314 3.5 15.5 3.5C16.0687 3.5 16.6215 3.54237 17.0727 3.62054C17.5238 3.69872 17.8482 3.80832 17.9953 3.93236" stroke="white" stroke-width="2" stroke-linecap="round"/>
</svg>
